# xmcd CD database file
#
# Track frame offsets:
#	225
#	21368
#	38733
#	58616
#	85545
#	103551
#	124031
#	142260
#	162660
#	180672
#	207662
#	226239
#	240550
#	259169
#	275383
#	299005
#	320937
#
# Disc length: 4453 seconds
#
# Revision: 0
# Processed by: cddbd v1.4PL0 Copyright (c) Steve Scherf et al.
# Submitted via: CDex 1.51
#
DISCID=05116211
DTITLE=Paul Millns - stories I could tell (songs 1975-95)
DYEAR=2002
DGENRE=Blues
TTITLE0=Katya
TTITLE1=Down in the Danger Zone
TTITLE2=All None the Wiser
TTITLE3=Man Overboard
TTITLE4=Ooh Last Night
TTITLE5=Finally Falls the Rain
TTITLE6=Dark-Eyed Girl from the Island
TTITLE7=That Midnight Run
TTITLE8=Secret Operations
TTITLE9=Martha
TTITLE10=No ONe Listens to the Night
TTITLE11=Far out to Sea Tonight
TTITLE12=Nobody Home
TTITLE13=Desperate Heart
TTITLE14=Last Train Blues
TTITLE15=Stories I Could Tell
TTITLE16=I Put a Spell on You
EXTD=YEAR: 2002
EXTT0=
EXTT1=
EXTT2=
EXTT3=
EXTT4=
EXTT5=
EXTT6=
EXTT7=
EXTT8=
EXTT9=
EXTT10=
EXTT11=
EXTT12=
EXTT13=
EXTT14=
EXTT15=
EXTT16=
PLAYORDER=
